# xmcd
#
# Track frame offsets:
#	150
#	14262
#	27024
#	42989
#	61600
#	76723
#	92295
#	105529
#	122359
#	138511
#	154811
#	173738
#	187324
#	200946
#
# Disc length: 2871 seconds
#
# Revision: 0
# Processed by: cddbd v1.5.2PL0 Copyright (c) Steve Scherf et al.
# Submitted via: dBpowerAMP V4.0
#
DISCID=aa0b350e
DTITLE=Clive Gregson - This Is Now
DYEAR=2014
DGENRE=Country
TTITLE0=My Kind Of Girl
TTITLE1=This Is Now
TTITLE2=Same Way Too
TTITLE3=Supposed To Do
TTITLE4=Haarlem
TTITLE5=Download
TTITLE6=There
TTITLE7=Kitty Come Back
TTITLE8=You Slipped Away
TTITLE9=Lovers
TTITLE10=Flat Top
TTITLE11=Storm Coming In
TTITLE12=Sooner Or Later
TTITLE13=Such A Long Way From Home
EXTD=
EXTT0=
EXTT1=
EXTT2=
EXTT3=
EXTT4=
EXTT5=
EXTT6=
EXTT7=
EXTT8=
EXTT9=
EXTT10=
EXTT11=
EXTT12=
EXTT13=
PLAYORDER=
